Coordinates
version=1
nRows=7
nColumns=40
inDegrees=yes

Units are S.I. units (second, meters, Newtons, ...)
Angles are in degrees.

endheader
time	pelvis_tilt	pelvis_list	pelvis_rotation	pelvis_tx	pelvis_ty	pelvis_tz	hip_flexion_r	hip_adduction_r	hip_rotation_r	knee_angle_r	knee_angle_r_beta	ankle_angle_r	subtalar_angle_r	mtp_angle_r	hip_flexion_l	hip_adduction_l	hip_rotation_l	knee_angle_l	knee_angle_l_beta	ankle_angle_l	subtalar_angle_l	mtp_angle_l	lumbar_extension	lumbar_bending	lumbar_rotation	arm_flex_r	arm_add_r	arm_rot_r	elbow_flex_r	pro_sup_r	wrist_flex_r	wrist_dev_r	arm_flex_l	arm_add_l	arm_rot_l	elbow_flex_l	pro_sup_l	wrist_flex_l	wrist_dev_l
     28.85678571	     -3.12202849	     -2.54424452	     -0.89444548	      0.84965846	      0.92564550	      0.45737992	     26.55104133	     -2.60396835	    -14.08760030	     18.52004042	     18.52004042	      3.09950237	     -4.26918629	      5.21428304	     -1.73011685	     -1.25494353	    -12.72397629	     10.07144644	     10.07144644	     17.36256885	     -0.40909985	     -6.26758604	     -9.03657127	      4.36481187	      2.40257411	    -18.23192239	    -11.18978323	     -6.12847855	     23.58293849	     46.37171654	      0.00000000	      0.00000000	     24.67088072	    -15.38704238	     -7.90855512	     68.51135678	     47.31499576	      0.00000000	      0.00000000
     28.86857143	     -3.22589620	     -2.51046116	     -1.03624310	      0.85033701	      0.92412746	      0.45893271	     26.14178675	     -2.26814480	    -14.49490627	     17.36968888	     17.36968888	      2.80168673	     -3.30523608	      5.48989891	     -2.10644657	     -1.32065782	    -12.80724162	     10.23692447	     10.23692447	     17.83848959	     -0.42362117	     -6.28869705	     -8.87099230	      4.32223431	      2.47828243	    -18.06886730	    -11.19228463	     -6.23606417	     23.60671785	     46.38457172	      0.00000000	      0.00000000	     24.47680273	    -15.33756224	     -7.99831271	     68.97712026	     47.33044103	      0.00000000	      0.00000000
     28.88035714	     -3.21905543	     -2.68325478	     -1.11032450	      0.85123848	      0.92289468	      0.46060889	     25.60912006	     -1.82270994	    -15.17490416	     16.64997056	     16.64997056	      2.56075369	     -2.34920368	      5.39570066	     -2.53546046	     -1.65610449	    -12.88580527	     10.57589275	     10.57589275	     18.45762367	     -0.35880177	     -6.08202788	     -8.83679431	      4.50792971	      2.50503138	    -17.73628917	    -11.27994847	     -6.40096191	     23.59479162	     46.40774692	      0.00000000	      0.00000000	     24.06427427	    -15.25869582	     -8.16060373	     69.58508860	     47.35336854	      0.00000000	      0.00000000
     28.89214286	     -3.34958521	     -2.63652180	     -1.18229431	      0.85220971	      0.92160115	      0.46235045	     25.49801318	     -1.64598375	    -15.28320440	     16.70938193	     16.70938193	      2.43915464	     -2.32903766	      5.40194126	     -2.91993207	     -1.72155003	    -12.85433584	     10.66752715	     10.66752715	     18.71611226	     -0.41510247	     -6.14592563	     -8.55905003	      4.41906292	      2.62681811	    -17.54039069	    -11.29500848	     -6.40756720	     23.65697681	     46.40780595	      0.00000000	      0.00000000	     23.95011058	    -15.20337031	     -8.15238934	     69.58886930	     47.35224191	      0.00000000	      0.00000000
     28.90392857	     -3.42798467	     -2.99373542	     -1.21303611	      0.85316611	      0.92056250	      0.46419613	     25.08256328	     -1.13888388	    -15.97231542	     16.56858549	     16.56858549	      1.79692267	     -1.74458773	      3.46271774	     -2.80044226	     -2.43671857	    -13.13596039	     11.97232179	     11.97232179	     20.08275119	     -0.08788095	     -4.73914094	     -8.47280142	      4.89212221	      2.22881731	    -16.45263182	    -11.47788019	     -6.74334319	     23.36619050	     46.47361811	      0.00000000	      0.00000000	     22.71198840	    -15.02699255	     -8.65247817	     70.41929022	     47.40237825	      0.00000000	      0.00000000
     28.91571429	     -3.39504633	     -3.18513178	     -1.24943981	      0.85445168	      0.91987987	      0.46632813	     24.65334926	     -0.70238173	    -15.75554549	     16.73364757	     16.73364757	      0.74232179	     -2.75528019	     -0.02363268	     -3.01996888	     -2.96406946	    -13.56631025	     12.93317787	     12.93317787	     21.65790152	      0.80483778	     -2.11484916	     -8.42245522	      5.06633494	      2.04023621	    -15.13234514	    -11.45725415	     -7.23061786	     22.35463494	     46.60562975	      0.00000000	      0.00000000	     21.87080523	    -14.89784446	     -9.41798316	     70.78779416	     47.47869534	      0.00000000	      0.00000000
     28.92750000	     -3.35441739	     -3.40151996	     -1.26386439	      0.85568869	      0.91957302	      0.46832514	     24.31752346	     -0.39175532	    -15.83478824	     17.32101718	     17.32101718	      1.01605704	     -2.97363572	     -0.34523800	     -3.33154744	     -3.40510785	    -13.43555264	     13.53555975	     13.53555975	     21.82631230	      0.44041282	     -2.14104857	     -8.40476809	      5.34497665	      2.23829430	    -14.42998822	    -11.52776116	     -7.25302174	     22.56801956	     46.60736235	      0.00000000	      0.00000000	     21.31783497	    -14.56682061	     -9.27626564	     70.49228010	     47.46103125	      0.00000000	      0.00000000
